<!DOCTYPE svg PUBLIC "-//W3C//DTD SVG 1.1//EN" "http://www.w3.org/Graphics/SVG/1.1/DTD/svg11.dtd">
<!-- Uploaded to: SVG Repo, www.svgrepo.com, Transformed by: SVG Repo Mixer Tools -->
<svg width="800px" height="800px" viewBox="-7.04 -7.04 78.08 78.08" data-name="Layer 1" id="Layer_1" xmlns="http://www.w3.org/2000/svg" fill="#000000">
<g id="SVGRepo_bgCarrier" stroke-width="0">
<rect x="-7.04" y="-7.04" width="78.08" height="78.08" rx="39.04" fill="#ffffff" strokewidth="0"/>
</g>
<g id="SVGRepo_tracerCarrier" stroke-linecap="round" stroke-linejoin="round"/>
<g id="SVGRepo_iconCarrier">
<defs>
<style>.cls-1{fill:#0074ff;}.cls-2{fill:#ffb300;}</style>
</defs>
<title/>
<path class="cls-1" d="M57.43,50.5H52.26a2,2,0,1,1,0-4h3.17v-29H8.57v29H40.48a2,2,0,0,1,0,4H6.57a2,2,0,0,1-2-2v-33a2,2,0,0,1,2-2H57.43a2,2,0,0,1,2,2v33A2,2,0,0,1,57.43,50.5Z"/>
<path class="cls-1" d="M57.43,27.36H6.57a2,2,0,0,1-2-2V15.5a2,2,0,0,1,2-2H57.43a2,2,0,0,1,2,2v9.86A2,2,0,0,1,57.43,27.36Zm-48.86-4H55.43V17.5H8.57Z"/>
<path class="cls-2" d="M17.87,38.86H13.32a2,2,0,0,1,0-4h4.55a2,2,0,1,1,0,4Z"/>
<path class="cls-2" d="M32.34,38.86h-8.4a2,2,0,1,1,0-4h8.4a2,2,0,0,1,0,4Z"/>
</g>
</svg>