<svg id="visual" viewBox="0 0 960 540" width="960" height="540" xmlns="http://www.w3.org/2000/svg" xmlns:xlink="http://www.w3.org/1999/xlink" version="1.1"><rect x="0" y="0" width="960" height="540" fill="#001220"></rect><defs><linearGradient id="grad1_0" x1="43.8%" y1="0%" x2="100%" y2="100%"><stop offset="14.444444444444446%" stop-color="#001220" stop-opacity="1"></stop><stop offset="85.55555555555554%" stop-color="#001220" stop-opacity="1"></stop></linearGradient></defs><defs><linearGradient id="grad2_0" x1="0%" y1="0%" x2="56.3%" y2="100%"><stop offset="14.444444444444446%" stop-color="#001220" stop-opacity="1"></stop><stop offset="85.55555555555554%" stop-color="#001220" stop-opacity="1"></stop></linearGradient></defs><g transform="translate(960, 0)"><path d="M0 189C-21.5 190 -43 191.1 -58.4 179.7C-73.8 168.4 -83 144.8 -94 129.4C-105.1 114.1 -118 107 -133.5 97C-149 87 -167.2 74.1 -176.9 57.5C-186.6 40.8 -187.8 20.4 -189 0L0 0Z" fill="#FBAE3C"></path></g><g transform="translate(0, 540)"><path d="M0 -189C19.2 -179.4 38.3 -169.8 51 -156.9C63.6 -144 69.8 -127.8 88.8 -122.2C107.7 -116.6 139.4 -121.6 152.9 -111.1C166.4 -100.6 161.6 -74.6 164.5 -53.5C167.5 -32.4 178.3 -16.2 189 0L0 0Z" fill="#FBAE3C"></path></g></svg>