<svg id="visual" viewBox="0 0 540 960" width="540" height="960" xmlns="http://www.w3.org/2000/svg" xmlns:xlink="http://www.w3.org/1999/xlink" version="1.1"><rect x="0" y="0" width="540" height="960" fill="#001220"></rect><defs><linearGradient id="grad1_0" x1="0%" y1="0%" x2="100%" y2="100%"><stop offset="30%" stop-color="#001220" stop-opacity="1"></stop><stop offset="70%" stop-color="#001220" stop-opacity="1"></stop></linearGradient></defs><defs><linearGradient id="grad2_0" x1="0%" y1="0%" x2="100%" y2="100%"><stop offset="30%" stop-color="#001220" stop-opacity="1"></stop><stop offset="70%" stop-color="#001220" stop-opacity="1"></stop></linearGradient></defs><g transform="translate(540, 0)"><path d="M0 162C-17.9 147.5 -35.8 133.1 -50.5 122C-65.2 110.8 -76.7 103 -94.8 94.8C-112.8 86.5 -137.4 77.9 -149.7 62C-162 46.1 -162 23.1 -162 0L0 0Z" fill="#FBAE3C"></path></g><g transform="translate(0, 960)"><path d="M0 -162C22 -160.5 43.9 -158.9 62 -149.7C80 -140.4 94.2 -123.4 107.5 -107.5C120.8 -91.5 133.3 -76.7 142.3 -58.9C151.2 -41.2 156.6 -20.6 162 0L0 0Z" fill="#FBAE3C"></path></g></svg>